<svg width="220" height="98" viewBox="0 0 220 98" fill="none" xmlns="http://www.w3.org/2000/svg">
<mask id="mask0_9_11" style="mask-type:alpha" maskUnits="userSpaceOnUse" x="0" y="0" width="220" height="98">
<path d="M29.5854 67.1812C29.5854 72.6413 24.7694 77.0666 18.8271 77.0666C12.8848 77.0666 8.06874 72.6413 8.06874 67.1812C8.06874 61.7211 12.8848 57.2958 18.8271 57.2958C24.7694 57.2958 29.5854 61.7211 29.5854 67.1812ZM0 94.5437C0 86.9365 6.70714 80.7736 14.986 80.7736H22.6681C30.947 80.7736 37.6541 86.9365 37.6541 94.5437C37.6541 95.8102 36.5363 96.8374 35.1579 96.8374H2.49627C1.11786 96.8374 0 95.8102 0 94.5437ZM51.2113 96.8374H39.6209C40.0748 96.1114 40.3437 95.2696 40.3437 94.3661V93.7482C40.3437 89.0604 38.066 84.8513 34.4771 82.0247C34.6788 82.017 34.8721 82.0093 35.0738 82.0093H40.2344C47.7232 82.0093 53.7916 87.5853 53.7916 94.4664C53.7916 95.7794 52.6317 96.8374 51.2113 96.8374ZM36.3093 77.0666C33.7038 77.0666 31.3504 76.0935 29.6442 74.5257C31.3 72.4714 32.275 69.9306 32.275 67.1812C32.275 65.1114 31.7202 63.1575 30.7369 61.443C32.3002 60.3927 34.2249 59.7671 36.3093 59.7671C41.512 59.7671 45.7229 63.6363 45.7229 68.4169C45.7229 73.1974 41.512 77.0666 36.3093 77.0666Z" fill="black"/>
<path d="M71.3193 0.948997V42.4677H58.4093V22.2422L48.3395 37.782H47.1776L37.1078 22.2422V42.4677H24.1978V0.948997H37.1078L47.7585 17.853L58.4093 0.948997H71.3193Z" fill="black"/>
<path d="M117.09 37.1889C112.486 41.3408 106.827 43.4167 100.114 43.4167C93.4004 43.4167 87.72 41.3408 83.0724 37.1889C78.4678 32.9975 76.1656 27.8373 76.1656 21.7083C76.1656 15.5794 78.4678 10.439 83.0724 6.28712C87.72 2.09571 93.4004 0 100.114 0C106.827 0 112.486 2.09571 117.09 6.28712C121.738 10.439 124.062 15.5794 124.062 21.7083C124.062 27.8373 121.738 32.9975 117.09 37.1889ZM92.174 28.9445C94.2826 30.8425 96.9291 31.7915 100.114 31.7915C103.298 31.7915 105.923 30.8425 107.989 28.9445C110.097 27.0069 111.152 24.5949 111.152 21.7083C111.152 18.8218 110.097 16.4295 107.989 14.5315C105.923 12.594 103.298 11.6252 100.114 11.6252C96.9291 11.6252 94.2826 12.594 92.174 14.5315C90.1084 16.4295 89.0756 18.8218 89.0756 21.7083C89.0756 24.5949 90.1084 27.0069 92.174 28.9445Z" fill="black"/>
<path d="M137.485 42.4677L123.09 0.948997H137.291L144.715 27.343L152.138 0.948997H166.339L151.944 42.4677H137.485Z" fill="black"/>
<path d="M169.561 0.948997H182.471V42.4677H169.561V0.948997Z" fill="black"/>
<path d="M201.824 31.5542H218.607V42.4677H188.914V0.948997H218.284V11.7439H201.824V16.2516H216.67V26.9278H201.824V31.5542Z" fill="black"/>
<path d="M88.3181 97.7864C81.5188 97.7864 75.8815 95.7105 71.406 91.5586C66.9305 87.4067 64.6928 82.2465 64.6928 76.0781C64.6928 69.9096 66.9305 64.7494 71.406 60.5975C75.8815 56.4456 81.5188 54.3697 88.3181 54.3697C92.4923 54.3697 96.3438 55.2792 99.8725 57.0981C103.401 58.917 106.155 61.3686 108.135 64.4528L96.9032 70.3841C96.1717 69.0396 95.0313 67.972 93.4821 67.1812C91.9329 66.3904 90.2116 65.9949 88.3181 65.9949C85.1336 65.9949 82.5516 66.9439 80.5721 68.8419C78.5926 70.7399 77.6028 73.152 77.6028 76.0781C77.6028 79.0041 78.5926 81.4162 80.5721 83.3142C82.5516 85.2122 85.1336 86.1612 88.3181 86.1612C90.2546 86.1612 91.9759 85.7657 93.4821 84.9749C95.0313 84.1841 96.1717 83.0967 96.9032 81.7127L108.135 87.644C106.155 90.7678 103.401 93.2391 99.8725 95.058C96.3438 96.8769 92.4923 97.7864 88.3181 97.7864Z" fill="black"/>
<path d="M124.288 85.3308H139.135V96.8374H111.378V55.3187H124.288V85.3308Z" fill="black"/>
<path d="M173.756 93.6938C170.356 96.4222 165.924 97.7864 160.459 97.7864C154.993 97.7864 150.561 96.4222 147.161 93.6938C143.762 90.9655 142.062 87.387 142.062 82.9583V55.3187H154.972V81.6534C154.972 84.7377 156.801 86.2798 160.459 86.2798C164.117 86.2798 165.945 84.7377 165.945 81.6534V55.3187H178.855V82.9583C178.855 87.387 177.156 90.9655 173.756 93.6938Z" fill="black"/>
<path d="M213.738 75.4256C217.611 77.4422 219.547 80.5067 219.547 84.619C219.547 88.415 218.192 91.4004 215.48 93.5752C212.812 95.75 208.918 96.8374 203.797 96.8374H184.69V55.3187H202.635C207.713 55.3187 211.586 56.327 214.254 58.3436C216.922 60.3603 218.256 63.2468 218.256 67.0033C218.256 70.6015 216.75 73.409 213.738 75.4256ZM201.86 65.5204H197.6V71.0958L202.57 71.0365C204.421 70.7992 205.346 69.8898 205.346 68.3081C205.346 67.3987 205.002 66.7067 204.313 66.2322C203.625 65.7577 202.807 65.5204 201.86 65.5204ZM203.022 86.6357C204.055 86.6357 204.916 86.3589 205.604 85.8053C206.293 85.2517 206.637 84.54 206.637 83.67C206.637 82.0093 205.669 81.0405 203.732 80.7637L197.6 80.7044V86.6357H203.022Z" fill="black"/>
</mask>
<g mask="url(#mask0_9_11)">
<rect y="-21" width="220.546" height="143.338" fill="url(#paint0_linear_9_11)"/>
</g>
<defs>
<linearGradient id="paint0_linear_9_11" x1="-5.70526e-07" y1="53.1405" x2="220.546" y2="53.1405" gradientUnits="userSpaceOnUse">
<stop stop-color="#217CEF"/>
<stop offset="0.520833" stop-color="#11DBEF"/>
<stop offset="1" stop-color="#00C6AB"/>
</linearGradient>
</defs>
</svg>
